HIERARCHY
ROOT root
{
	OFFSET 0.000000 0.000000 0.000000
	CHANNELS 6 Xposition Yposition Zposition Zrotation Yrotation Xrotation
	JOINT lhip
	{
		OFFSET 0.058581 -0.082280 -0.017664
		CHANNELS 3 Zrotation Yrotation Xrotation
		JOINT lknee
		{
			OFFSET 0.043451 -0.386469 0.008037
			CHANNELS 3 Zrotation Yrotation Xrotation
			JOINT lankle
			{
				OFFSET -0.014790 -0.426874 -0.037428
				CHANNELS 3 Zrotation Yrotation Xrotation
				JOINT ltoe
				{
					OFFSET 0.041054 -0.060286 0.122042
					CHANNELS 3 Zrotation Yrotation Xrotation
					End Site
					{
						OFFSET 0.000000 0.000000 0.000000
					}
				}
			}
		}
	}
	JOINT rhip
	{
		OFFSET -0.060310 -0.090513 -0.013543
		CHANNELS 3 Zrotation Yrotation Xrotation
		JOINT rknee
		{
			OFFSET -0.043257 -0.383688 -0.004843
			CHANNELS 3 Zrotation Yrotation Xrotation
			JOINT rankle
			{
				OFFSET 0.019056 -0.420046 -0.034562
				CHANNELS 3 Zrotation Yrotation Xrotation
				JOINT rtoe
				{
					OFFSET -0.034840 -0.062106 0.130323
					CHANNELS 3 Zrotation Yrotation Xrotation
					End Site
					{
						OFFSET 0.000000 0.000000 0.000000
					}
				}
			}
		}
	}
	JOINT lowerback
	{
		OFFSET 0.004439 0.124404 -0.038385
		CHANNELS 3 Zrotation Yrotation Xrotation
		JOINT upperback
		{
			OFFSET 0.004488 0.137956 0.026820
			CHANNELS 3 Zrotation Yrotation Xrotation
			JOINT chest
			{
				OFFSET -0.002265 0.056032 0.002855
				CHANNELS 3 Zrotation Yrotation Xrotation
				JOINT lowerneck
				{
					OFFSET -0.013390 0.211636 -0.033468
					CHANNELS 3 Zrotation Yrotation Xrotation
					JOINT upperneck
					{
						OFFSET 0.010113 0.088937 0.050410
						CHANNELS 3 Zrotation Yrotation Xrotation
						End Site
						{
							OFFSET 0.000000 0.000000 0.000000
						}
					}
				}
				JOINT lclavicle
				{
					OFFSET 0.071702 0.114000 -0.018898
					CHANNELS 3 Zrotation Yrotation Xrotation
					JOINT lshoulder
					{
						OFFSET 0.122921 0.045205 -0.019046
						CHANNELS 3 Zrotation Yrotation Xrotation
						JOINT lelbow
						{
							OFFSET 0.255332 -0.015649 -0.022946
							CHANNELS 3 Zrotation Yrotation Xrotation
							JOINT lwrist
							{
								OFFSET 0.265709 0.012698 -0.007375
								CHANNELS 3 Zrotation Yrotation Xrotation
								End Site
								{
									OFFSET 0.000000 0.000000 0.000000
								}
							}
						}
					}
				}
				JOINT rclavicle
				{
					OFFSET -0.082954 0.112472 -0.023707
					CHANNELS 3 Zrotation Yrotation Xrotation
					JOINT rshoulder
					{
						OFFSET -0.113228 0.046853 -0.008472
						CHANNELS 3 Zrotation Yrotation Xrotation
						JOINT relbow
						{
							OFFSET -0.260127 -0.014369 -0.031269
							CHANNELS 3 Zrotation Yrotation Xrotation
							JOINT rwrist
							{
								OFFSET -0.269108 0.006794 -0.006027
								CHANNELS 3 Zrotation Yrotation Xrotation
								End Site
								{
									OFFSET 0.000000 0.000000 0.000000
								}
							}
						}
					}
				}
			}
		}
	}
}
MOTION
Frames: 10
Frame Time: 0.033333
-1.942130 0.298073 1.026685 88.212193 -1.667767 89.396349 -4.198556 -1.502188 2.030776 -2.146533 -10.113205 5.019748 5.857778 10.751338 -9.904326 0.000000 -0.000000 0.000000 0.122355 -0.423125 -5.913191 1.702874 -0.604405 18.295270 5.573774 -5.743411 -12.000550 0.000000 -0.000000 0.000000 -0.149935 -1.405065 9.000029 0.398931 -2.605209 -3.144406 -0.938511 -1.518416 3.815924 2.752528 8.454167 -10.913479 -1.806904 1.457939 4.457118 -26.361454 8.317362 -0.938466 -55.451399 -6.709751 8.617982 7.890150 -28.998539 5.849681 -4.088026 -3.097844 -5.606562 29.837143 -5.775518 -1.305888 57.206669 3.593801 11.095499 -18.762333 15.352967 -12.943495 5.365436 1.288060 -7.911028 
-1.942914 0.297962 1.026796 88.059380 -1.681140 89.387325 -4.241349 -1.574000 2.014432 -2.133125 -10.043111 5.035067 6.046528 10.974635 -9.988932 0.000000 -0.000000 0.000000 0.127388 -0.290651 -5.983246 1.736750 -0.479457 18.341545 5.532237 -5.915293 -12.007723 0.000000 -0.000000 0.000000 -0.262437 -1.430122 9.042722 0.484618 -2.531240 -3.216028 -0.885165 -1.526099 3.774398 2.892700 8.161857 -10.428525 -2.045874 1.433203 4.461474 -26.443070 8.328729 -0.833466 -55.481049 -6.673013 8.678201 7.954919 -29.022035 5.854427 -4.341819 -3.021914 -5.634839 29.770547 -5.736478 -1.226810 57.324324 3.746424 11.169264 -18.666372 15.357238 -13.055712 5.546706 1.375824 -8.090878 
-1.943445 0.298045 1.026853 88.069332 -1.664652 89.352999 -4.221262 -1.576609 2.010268 -2.153533 -10.076744 5.072986 5.948816 10.869408 -9.965987 0.000000 -0.000000 0.000000 0.153558 -0.304702 -5.919602 1.730635 -0.432707 18.239495 5.512438 -5.911863 -12.037819 0.000000 -0.000000 0.000000 -0.245051 -1.484269 8.980497 0.489393 -2.616834 -3.208581 -0.921977 -1.533965 3.743094 3.043764 8.274344 -10.284278 -1.832994 1.406908 4.672414 -26.429952 8.372742 -0.769123 -55.456529 -6.630335 8.704342 7.877447 -29.090467 5.923433 -4.476522 -2.949230 -5.575705 29.884486 -5.688320 -1.232733 57.397953 3.722093 11.236707 -18.723914 15.549194 -13.076339 5.714853 1.306463 -8.120760 
-1.944578 0.298088 1.026889 87.885411 -1.649148 89.298470 -4.204571 -1.487063 2.034401 -2.143315 -10.063623 4.999464 5.882832 10.872227 -9.894184 0.000000 -0.000000 0.000000 0.150155 -0.157811 -5.931453 1.717502 -0.535453 18.226002 5.359228 -5.890942 -12.068665 0.000000 -0.000000 0.000000 -0.266748 -1.628387 9.139412 0.479139 -2.606993 -3.299808 -0.919101 -1.481446 3.712165 3.006389 8.404295 -10.179919 -1.943691 1.397508 4.841296 -26.408615 8.463306 -0.781931 -55.445018 -6.627633 8.702370 7.910080 -29.201824 5.853658 -4.541121 -3.051664 -5.608856 29.970196 -5.593671 -1.207222 57.512195 3.835354 11.369784 -18.690686 15.547461 -13.002653 5.867521 1.429023 -8.110231 
-1.945340 0.298231 1.026883 87.933937 -1.616113 89.348251 -4.171587 -1.611417 1.948341 -2.120559 -10.043920 4.970822 5.846590 10.887516 -9.959070 0.000000 -0.000000 0.000000 0.170111 -0.030443 -6.049338 1.753330 -0.591656 18.267642 5.406226 -6.020849 -11.987352 0.000000 -0.000000 0.000000 -0.300414 -1.689283 9.133488 0.504232 -2.605113 -3.376259 -0.882596 -1.496830 3.743470 3.039712 8.451214 -10.233858 -1.965155 1.424861 4.980188 -26.431742 8.520745 -0.925830 -55.425455 -6.682519 8.763363 7.841571 -29.217929 5.827254 -4.478056 -3.057259 -5.586089 30.017448 -5.659909 -1.265363 57.468193 3.805121 11.500598 -18.575896 15.640271 -12.955505 5.921128 1.410466 -8.124322 
-1.945357 0.298183 1.026822 87.938278 -1.585690 89.277171 -4.093760 -1.677891 2.123534 -2.152550 -9.939122 4.820679 5.801179 10.824863 -9.992107 0.000000 -0.000000 0.000000 0.224804 -0.095558 -5.944396 1.775354 -0.474555 18.232739 5.356774 -6.130372 -12.053882 0.000000 -0.000000 0.000000 -0.402158 -1.582143 9.048300 0.580856 -2.589961 -3.313236 -0.810880 -1.612822 3.812087 3.246656 8.251107 -10.395831 -2.068221 1.217741 5.102660 -26.502121 8.543623 -0.876928 -55.351727 -6.822577 8.756090 7.882389 -29.319338 5.817538 -4.383009 -3.161872 -5.574973 30.098746 -5.812978 -1.496029 57.473805 3.666479 11.641813 -18.522708 15.741027 -12.784444 5.920516 1.343846 -7.965487 
-1.945396 0.298311 1.026581 87.934773 -1.564749 89.223768 -3.983785 -1.578799 2.275369 -2.227821 -9.980239 4.667761 5.672793 10.803042 -10.194696 0.000000 -0.000000 0.000000 0.282293 -0.115283 -5.945114 1.702777 -0.441585 18.306883 5.255781 -6.115596 -12.147951 0.000000 -0.000000 0.000000 -0.499559 -1.606337 9.002031 0.610555 -2.615640 -3.349905 -0.745032 -1.609810 3.749266 3.214443 8.371119 -9.875559 -1.963170 1.397628 5.190174 -26.438841 8.584314 -0.817354 -55.335376 -6.874885 8.649857 7.886935 -29.506367 5.694656 -4.407494 -3.135079 -5.485405 30.032057 -5.832583 -1.283377 57.564207 3.640672 11.569746 -18.379027 15.804735 -12.624413 6.229234 1.297274 -7.870069 
-1.945761 0.298710 1.026583 88.088844 -1.577322 89.208654 -3.975012 -1.652557 2.338105 -2.268224 -10.043951 4.511525 5.779877 10.723002 -10.012378 0.000000 -0.000000 0.000000 0.261917 -0.223169 -5.965608 1.693985 -0.428261 18.374259 5.265283 -6.205413 -12.144740 0.000000 -0.000000 0.000000 -0.588412 -1.586285 8.954035 0.649883 -2.702287 -3.343292 -0.722638 -1.670671 3.730045 3.308686 8.286589 -9.846923 -1.943422 1.301423 5.253823 -26.460701 8.517667 -0.838808 -55.223634 -7.005330 8.642597 7.865101 -29.507521 5.633367 -4.428560 -2.996780 -5.523299 30.107856 -5.880875 -1.319195 57.609377 3.534090 11.617300 -18.409221 15.685411 -12.668634 6.245381 1.398553 -7.922522 
-1.946036 0.298928 1.026480 88.151990 -1.546176 89.124188 -3.892553 -1.598215 2.430742 -2.310611 -9.984383 4.491298 5.703315 10.579573 -10.262513 0.000000 -0.000000 0.000000 0.275975 -0.260294 -5.896154 1.700296 -0.465680 18.392205 5.203712 -6.222462 -12.113842 0.000000 -0.000000 0.000000 -0.665025 -1.535650 8.902686 0.681641 -2.704346 -3.261525 -0.694503 -1.702549 3.726493 3.227892 8.351621 -9.699300 -1.927784 1.387363 5.304042 -26.348678 8.458625 -0.735503 -55.292501 -7.206310 8.604442 7.989196 -29.579445 5.614400 -4.356181 -3.033471 -5.726497 30.119984 -5.973254 -1.354315 57.694951 3.492532 11.621667 -18.374275 15.526666 -12.492124 6.242546 1.344509 -7.959497 
-1.946240 0.299250 1.026384 88.281018 -1.539630 89.129659 -3.848272 -1.620318 2.425367 -2.394851 -10.081857 4.437296 5.659665 10.630247 -10.226695 0.000000 -0.000000 0.000000 0.284590 -0.225384 -5.889687 1.696083 -0.499298 18.321566 5.068211 -6.376398 -12.127979 0.000000 -0.000000 0.000000 -0.718815 -1.601331 8.782756 0.690845 -2.763709 -3.272698 -0.724196 -1.747474 3.771169 3.340551 8.367112 -9.871681 -1.834695 1.273693 5.362326 -26.401126 8.532232 -0.848509 -55.034274 -7.229212 8.666163 7.975080 -29.848640 5.574285 -4.309754 -3.213533 -5.720391 30.242812 -6.079056 -1.498850 57.639247 3.298293 11.703597 -18.279835 15.512142 -12.409029 6.292618 1.270981 -7.947373 
